# xmcd
#
# Track frame offsets: 
#        150
#        14371
#        29572
#        46505
#        64090
#        80588
#        99249
#        117959
#        133914
#        148943
#        163848
#        179993
#
# Disc length: 2604 seconds
#
# Revision: 0
# Processed by: cddbd v1.5.2PL0 Copyright (c) Steve Scherf et al.
# Submitted via: ExactAudioCopy v0.99pb4
#
DISCID=ac0a2a0c
DTITLE=The Baseballs - Strike
DYEAR=1900
DGENRE=Rock and Roll
TTITLE0=Umbrella
TTITLE1=Love In This Club
TTITLE2=Hey There Delilah
TTITLE3=Bleeding Love
TTITLE4=Hot n Cold
TTITLE5=I don´t feel like Dancin´
TTITLE6=Don´t Cha
TTITLE7=Let´s get Loud
TTITLE8=Angels
TTITLE9=Crazy in Love
TTITLE10=This Love
TTITLE11=The Look
EXTD=
EXTT0=
EXTT1=
EXTT2=
EXTT3=
EXTT4=
EXTT5=
EXTT6=
EXTT7=
EXTT8=
EXTT9=
EXTT10=
EXTT11=
PLAYORDER=
